<svg width="200" height="65" xmlns="http://www.w3.org/2000/svg" fill="none">

 <g>
  <title>background</title>
  <rect fill="none" id="canvas_background" height="644" width="1292" y="-1" x="-1"/>
 </g>
 <g>
  <title>Layer 1</title>
  <path id="svg_2" fill="#0069FF" d="m73.8134,33.544c-1.4337,-0.9567 -3.2134,-1.459 -5.2898,-1.459l-4.5236,0l0,13.8966l4.5236,0c2.0764,0 3.8561,-0.5022 5.2898,-1.5307c0.791,-0.5262 1.409,-1.2916 1.8292,-2.2244c0.4202,-0.9329 0.6427,-2.0331 0.6427,-3.2769c0,-1.2198 -0.2225,-2.3201 -0.6427,-3.2529c-0.4202,-0.9089 -1.0382,-1.6264 -1.8292,-2.1527zm-7.1685,0.9089l1.4337,0c1.582,0 2.8921,0.311 3.8809,0.885c1.0876,0.6458 1.6562,1.8657 1.6562,3.6117c0,1.8178 -0.5686,3.0855 -1.6562,3.7791c-0.9393,0.598 -2.2494,0.9089 -3.8562,0.9089l-1.4584,0l0,-9.1847z"/>
  <path id="svg_3" fill="#0069FF" d="m79.4494,31.9415c-0.4449,0 -0.8157,0.1436 -1.1124,0.4306c-0.2966,0.287 -0.4696,0.6458 -0.4696,1.0524c0,0.4305 0.1483,0.7893 0.4696,1.0763c0.2967,0.287 0.6675,0.4545 1.1124,0.4545c0.4449,0 0.8157,-0.1435 1.1123,-0.4545c0.2967,-0.287 0.4697,-0.6697 0.4697,-1.0763c0,-0.4305 -0.1483,-0.7893 -0.4697,-1.0524c-0.2966,-0.287 -0.6921,-0.4306 -1.1123,-0.4306z"/>
  <path id="svg_4" fill="#0069FF" d="m80.6853,36.2229l-2.5461,0l0,9.8066l2.5461,0l0,-9.8066z"/>
  <path id="svg_5" fill="#0069FF" d="m89.9548,37.0361c-0.7662,-0.6697 -1.6314,-1.0524 -2.546,-1.0524c-1.409,0 -2.5708,0.4784 -3.4854,1.3873c-0.9146,0.9089 -1.3595,2.1048 -1.3595,3.516c0,1.3873 0.4449,2.5593 1.3595,3.516c0.9146,0.9089 2.0764,1.3873 3.4854,1.3873c0.9887,0 1.8292,-0.2631 2.5213,-0.7893l0,0.2152c0,0.8133 -0.2225,1.4352 -0.6674,1.8896c-0.4449,0.4305 -1.0629,0.6458 -1.8292,0.6458c-1.1865,0 -1.9034,-0.4544 -2.818,-1.6265l-1.7303,1.6026l0.0495,0.0717c0.3707,0.5023 0.9393,1.0046 1.7056,1.483c0.7663,0.4784 1.7056,0.7175 2.8426,0.7175c1.5079,0 2.7438,-0.4544 3.6337,-1.3394c0.9146,-0.885 1.3596,-2.0809 1.3596,-3.5638l0,-8.8738l-2.4966,0l0,0.8132l-0.0248,0zm-0.6674,5.7883c-0.4449,0.4784 -1.0135,0.7176 -1.755,0.7176c-0.7416,0 -1.3101,-0.2392 -1.7303,-0.7176c-0.445,-0.4784 -0.6675,-1.1242 -0.6675,-1.9135c0,-0.7893 0.2225,-1.459 0.6675,-1.9374c0.4449,-0.4783 1.0134,-0.7414 1.7303,-0.7414c0.7415,0 1.3101,0.2391 1.755,0.7414c0.445,0.4784 0.6674,1.1481 0.6674,1.9374c0,0.7893 -0.2472,1.4351 -0.6674,1.9135z"/>
  <path id="svg_6" fill="#0069FF" d="m97.1728,36.2229l-2.5461,0l0,9.8066l2.5461,0l0,-9.8066z"/>
  <path id="svg_7" fill="#0069FF" d="m95.9369,31.9415c-0.445,0 -0.8157,0.1436 -1.1124,0.4306c-0.2966,0.287 -0.4696,0.6458 -0.4696,1.0524c0,0.4305 0.1483,0.7893 0.4696,1.0763c0.2967,0.287 0.6674,0.4545 1.1124,0.4545c0.4449,0 0.8157,-0.1435 1.1123,-0.4545c0.2967,-0.287 0.4697,-0.6697 0.4697,-1.0763c0,-0.4305 -0.1483,-0.7893 -0.4697,-1.0524c-0.2966,-0.287 -0.6921,-0.4306 -1.1123,-0.4306z"/>
  <path id="svg_8" fill="#0069FF" d="m102.759,33.568l-2.496,0l0,2.655l-1.4588,0l0,2.2483l1.4588,0l0,4.0661c0,1.2677 0.272,2.1766 0.791,2.7028c0.519,0.5262 1.433,0.7893 2.743,0.7893c0.421,0 0.841,-0.0239 1.236,-0.0478l0.124,0l0,-2.2483l-0.865,0.0478c-0.618,0 -1.014,-0.0957 -1.211,-0.3109c-0.198,-0.2153 -0.297,-0.6458 -0.297,-1.2916l0,-3.7074l2.373,0l0,-2.2483l-2.373,0l0,-2.655l-0.025,0z"/>
  <path id="svg_9" fill="#0069FF" d="m119.618,32.109l-2.546,0l0,13.8966l2.546,0l0,-13.8966z"/>
  <path id="svg_10" fill="#0069FF" d="m145.35,42.5135c-0.445,0.5022 -0.915,0.9328 -1.285,1.148c-0.346,0.2153 -0.791,0.3349 -1.31,0.3349c-0.742,0 -1.36,-0.2631 -1.854,-0.8132c-0.495,-0.5501 -0.742,-1.2438 -0.742,-2.0809c0,-0.8372 0.247,-1.5308 0.717,-2.057c0.494,-0.5501 1.088,-0.8132 1.829,-0.8132c0.816,0 1.681,0.5022 2.423,1.3394l1.68,-1.5547c-1.087,-1.3873 -2.496,-2.0331 -4.177,-2.0331c-1.409,0 -2.62,0.5023 -3.609,1.459c-0.989,0.9568 -1.483,2.2005 -1.483,3.6596c0,1.459 0.494,2.6788 1.483,3.6595c0.989,0.9807 2.2,1.459 3.609,1.459c1.854,0 3.337,-0.7654 4.326,-2.1766l-1.607,-1.5307z"/>
  <path id="svg_11" fill="#0069FF" d="m155.806,37.5863c-0.371,-0.4784 -0.865,-0.885 -1.458,-1.172c-0.618,-0.2871 -1.31,-0.4306 -2.101,-0.4306c-1.434,0 -2.596,0.5023 -3.461,1.5069c-0.841,1.0046 -1.285,2.2244 -1.285,3.6834c0,1.483 0.469,2.7028 1.409,3.6595c0.914,0.9329 2.175,1.4112 3.683,1.4112c1.705,0 3.139,-0.6697 4.177,-2.0091l0.05,-0.0718l-1.657,-1.5547c-0.148,0.1914 -0.37,0.3827 -0.568,0.5741c-0.247,0.2392 -0.495,0.4066 -0.742,0.5262c-0.37,0.1913 -0.815,0.2631 -1.285,0.2631c-0.717,0 -1.285,-0.1914 -1.73,-0.598c-0.421,-0.3588 -0.668,-0.861 -0.717,-1.4829l6.748,0l0.025,-0.9089c0,-0.6458 -0.099,-1.2438 -0.272,-1.8178c-0.173,-0.5502 -0.445,-1.1003 -0.816,-1.5786zm-5.562,2.2961c0.124,-0.4783 0.346,-0.861 0.668,-1.172c0.346,-0.3348 0.791,-0.5023 1.335,-0.5023c0.618,0 1.087,0.1675 1.409,0.5023c0.296,0.311 0.469,0.6937 0.519,1.1481l-3.931,0l0,0.0239z"/>
  <path id="svg_12" fill="#0069FF" d="m165.595,36.9405c-0.767,-0.6458 -1.829,-0.9568 -3.164,-0.9568c-0.841,0 -1.632,0.1914 -2.349,0.5262c-0.667,0.3349 -1.31,0.8611 -1.73,1.5786l0.025,0.024l1.631,1.5068c0.668,-1.0285 1.409,-1.3872 2.398,-1.3872c0.544,0 0.964,0.1435 1.31,0.4066c0.346,0.2631 0.495,0.6218 0.495,1.0524l0,0.4784c-0.643,-0.1914 -1.261,-0.2871 -1.879,-0.2871c-1.261,0 -2.299,0.287 -3.065,0.8611c-0.767,0.574 -1.162,1.4112 -1.162,2.4397c0,0.9089 0.321,1.6743 0.989,2.2244c0.667,0.5262 1.483,0.8132 2.447,0.8132c0.964,0 1.878,-0.3827 2.694,-1.0285l0,0.8133l2.497,0l0,-6.2906c0.049,-1.1959 -0.346,-2.1287 -1.137,-2.7745zm-4.524,5.3338c0.297,-0.1914 0.692,-0.287 1.211,-0.287c0.618,0 1.261,0.1195 1.929,0.3587l0,0.9568c-0.544,0.5023 -1.286,0.7414 -2.2,0.7414c-0.445,0 -0.791,-0.0956 -1.014,-0.287c-0.222,-0.1913 -0.346,-0.4066 -0.346,-0.7175c0,-0.3349 0.148,-0.5741 0.42,-0.7654z"/>
  <path id="svg_13" fill="#0069FF" d="m176.57,37.1318c-0.717,-0.7654 -1.706,-1.1481 -2.966,-1.1481c-1.014,0 -1.829,0.287 -2.447,0.8372l0,-0.598l-2.497,0l0,9.8066l2.546,0l0,-5.4295c0,-0.7415 0.173,-1.3395 0.544,-1.7461c0.371,-0.4305 0.84,-0.6218 1.508,-0.6218c0.568,0 1.013,0.1913 1.335,0.5501c0.321,0.3827 0.494,0.885 0.494,1.5308l0,5.6686l2.546,0l0,-5.6447c0,-1.3634 -0.346,-2.4397 -1.063,-3.2051z"/>
  <path id="svg_14" fill="#0069FF" d="m113.883,36.9405c-0.766,-0.6458 -1.829,-0.9568 -3.164,-0.9568c-0.841,0 -1.632,0.1914 -2.348,0.5262c-0.668,0.3349 -1.311,0.8611 -1.731,1.5786l0.025,0.024l1.631,1.5068c0.668,-1.0285 1.409,-1.3872 2.398,-1.3872c0.544,0 0.964,0.1435 1.31,0.4066c0.346,0.2631 0.495,0.6218 0.495,1.0524l0,0.4784c-0.643,-0.1914 -1.261,-0.2871 -1.879,-0.2871c-1.261,0 -2.299,0.287 -3.065,0.8611c-0.766,0.574 -1.162,1.4112 -1.162,2.4397c0,0.9089 0.321,1.6743 0.989,2.2244c0.667,0.5262 1.483,0.8132 2.447,0.8132c0.964,0 1.879,-0.3827 2.694,-1.0285l0,0.8133l2.497,0l0,-6.2906c0.025,-1.1959 -0.371,-2.1287 -1.137,-2.7745zm-4.524,5.3338c0.297,-0.1914 0.692,-0.287 1.212,-0.287c0.617,0 1.26,0.1195 1.928,0.3587l0,0.9568c-0.544,0.5023 -1.286,0.7414 -2.2,0.7414c-0.445,0 -0.791,-0.0956 -1.014,-0.287c-0.222,-0.1913 -0.346,-0.4066 -0.346,-0.7175c0,-0.3349 0.124,-0.5741 0.42,-0.7654z"/>
  <path id="svg_15" fill="#0069FF" d="m128.863,46.2209c-4.079,0 -7.416,-3.2051 -7.416,-7.1756c0,-3.9704 3.312,-7.1755 7.416,-7.1755c4.103,0 7.415,3.2051 7.415,7.1755c0,3.9705 -3.337,7.1756 -7.415,7.1756zm0,-11.8157c-2.645,0 -4.796,2.0809 -4.796,4.6401c0,2.5593 2.151,4.6402 4.796,4.6402c2.644,0 4.795,-2.0809 4.795,-4.6402c0,-2.5592 -2.151,-4.6401 -4.795,-4.6401z"/>
  <path id="svg_16" fill="#0069FF" d="m63.998,26l0,-8.2418l2.7849,0c0.6465,0 1.1751,0.1167 1.5856,0.3501c0.4131,0.2307 0.719,0.5433 0.9175,0.9377c0.1985,0.3943 0.2978,0.8343 0.2978,1.3199c0,0.4856 -0.0993,0.927 -0.2978,1.324c-0.1958,0.3971 -0.499,0.7137 -0.9095,0.9498c-0.4105,0.2334 -0.9363,0.3501 -1.5775,0.3501l-1.9961,0l0,-0.8854l1.9639,0c0.4427,0 0.7981,-0.0764 1.0664,-0.2293c0.2683,-0.153 0.4628,-0.3595 0.5836,-0.6198c0.1234,-0.2629 0.1851,-0.5594 0.1851,-0.8894c0,-0.33 -0.0617,-0.6251 -0.1851,-0.8853c-0.1208,-0.2603 -0.3166,-0.4642 -0.5876,-0.6117c-0.271,-0.1503 -0.6305,-0.2254 -1.0785,-0.2254l-1.7546,0l0,7.3565l-0.9981,0zm9.5095,0.1288c-0.558,0 -1.0476,-0.1328 -1.4689,-0.3984c-0.4185,-0.2656 -0.7458,-0.6372 -0.9819,-1.1148c-0.2334,-0.4775 -0.3501,-1.0356 -0.3501,-1.6741c0,-0.6439 0.1167,-1.206 0.3501,-1.6862c0.2361,-0.4802 0.5634,-0.8531 0.9819,-1.1188c0.4213,-0.2656 0.9109,-0.3984 1.4689,-0.3984c0.5581,0 1.0464,0.1328 1.4649,0.3984c0.4212,0.2657 0.7485,0.6386 0.9819,1.1188c0.2361,0.4802 0.3542,1.0423 0.3542,1.6862c0,0.6385 -0.1181,1.1966 -0.3542,1.6741c-0.2334,0.4776 -0.5607,0.8492 -0.9819,1.1148c-0.4185,0.2656 -0.9068,0.3984 -1.4649,0.3984zm0,-0.8532c0.4239,0 0.7727,-0.1086 1.0464,-0.326c0.2736,-0.2173 0.4762,-0.503 0.6076,-0.8571c0.1315,-0.3542 0.1972,-0.7378 0.1972,-1.151c0,-0.4132 -0.0657,-0.7982 -0.1972,-1.155c-0.1314,-0.3568 -0.334,-0.6452 -0.6076,-0.8652c-0.2737,-0.22 -0.6225,-0.33 -1.0464,-0.33c-0.4239,0 -0.7726,0.11 -1.0463,0.33c-0.2737,0.22 -0.4762,0.5084 -0.6077,0.8652c-0.1314,0.3568 -0.1972,0.7418 -0.1972,1.155c0,0.4132 0.0658,0.7968 0.1972,1.151c0.1315,0.3541 0.334,0.6398 0.6077,0.8571c0.2737,0.2174 0.6224,0.326 1.0463,0.326zm5.4409,0.7244l-1.8834,-6.1814l0.9981,0l1.3361,4.7326l0.0643,0l1.32,-4.7326l1.0142,0l1.3038,4.7165l0.0644,0l1.3361,-4.7165l0.998,0l-1.8833,6.1814l-0.9337,0l-1.3522,-4.7487l-0.0966,0l-1.3521,4.7487l-0.9337,0zm10.1886,0.1288c-0.5956,0 -1.1093,-0.1315 -1.5413,-0.3944c-0.4293,-0.2656 -0.7606,-0.6359 -0.994,-1.1107c-0.2307,-0.4776 -0.3461,-1.0329 -0.3461,-1.6661c0,-0.6332 0.1154,-1.1912 0.3461,-1.6741c0.2334,-0.4856 0.558,-0.8639 0.9739,-1.1349c0.4185,-0.2736 0.9068,-0.4105 1.4648,-0.4105c0.322,0 0.6399,0.0537 0.9538,0.161c0.3139,0.1073 0.5996,0.2817 0.8572,0.5232c0.2575,0.2388 0.4628,0.5553 0.6157,0.9497c0.1529,0.3944 0.2294,0.88 0.2294,1.4568l0,0.4025l-4.7648,0l0,-0.821l3.799,0c0,-0.3488 -0.0698,-0.66 -0.2093,-0.9336c-0.1368,-0.2737 -0.3327,-0.4897 -0.5876,-0.648c-0.2521,-0.1583 -0.5499,-0.2374 -0.8934,-0.2374c-0.3782,0 -0.7056,0.0939 -0.9819,0.2817c-0.2736,0.1851 -0.4843,0.4266 -0.6318,0.7244c-0.1476,0.2978 -0.2214,0.617 -0.2214,0.9578l0,0.5473c0,0.4668 0.0805,0.8625 0.2415,1.1872c0.1637,0.3219 0.3904,0.5674 0.6801,0.7364c0.2898,0.1664 0.6265,0.2495 1.0101,0.2495c0.2495,0 0.4749,-0.0349 0.6761,-0.1046c0.2039,-0.0725 0.3796,-0.1798 0.5272,-0.322c0.1476,-0.1448 0.2616,-0.3246 0.3421,-0.5392l0.9175,0.2575c-0.0966,0.3113 -0.2589,0.5849 -0.4869,0.821c-0.2281,0.2334 -0.5098,0.4158 -0.8451,0.5473c-0.3354,0.1288 -0.7123,0.1932 -1.1309,0.1932zm4.0042,-0.1288l0,-6.1814l0.9176,0l0,0.9337l0.0644,0c0.1127,-0.3059 0.3166,-0.554 0.6117,-0.7445c0.2951,-0.1905 0.6278,-0.2858 0.998,-0.2858c0.0698,0 0.157,0.0014 0.2616,0.0041c0.1046,0.0026 0.1838,0.0067 0.2374,0.012l0,0.9659c-0.0322,-0.0081 -0.1059,-0.0201 -0.2213,-0.0362c-0.1127,-0.0188 -0.2321,-0.0282 -0.3582,-0.0282c-0.3005,0 -0.5688,0.063 -0.8048,0.1891c-0.2335,0.1234 -0.4186,0.2952 -0.5554,0.5151c-0.1341,0.2174 -0.2012,0.4655 -0.2012,0.7445l0,3.9117l-0.9498,0zm6.6201,0.1288c-0.5956,0 -1.1094,-0.1315 -1.5414,-0.3944c-0.4292,-0.2656 -0.7606,-0.6359 -0.994,-1.1107c-0.2307,-0.4776 -0.3461,-1.0329 -0.3461,-1.6661c0,-0.6332 0.1154,-1.1912 0.3461,-1.6741c0.2334,-0.4856 0.5581,-0.8639 0.9739,-1.1349c0.4186,-0.2736 0.9068,-0.4105 1.4649,-0.4105c0.3219,0 0.6403,0.0537 0.9533,0.161c0.314,0.1073 0.6,0.2817 0.858,0.5232c0.257,0.2388 0.462,0.5553 0.615,0.9497c0.153,0.3944 0.23,0.88 0.23,1.4568l0,0.4025l-4.7651,0l0,-0.821l3.7991,0c0,-0.3488 -0.07,-0.66 -0.209,-0.9336c-0.137,-0.2737 -0.333,-0.4897 -0.588,-0.648c-0.252,-0.1583 -0.55,-0.2374 -0.8933,-0.2374c-0.3783,0 -0.7056,0.0939 -0.982,0.2817c-0.2736,0.1851 -0.4842,0.4266 -0.6318,0.7244c-0.1475,0.2978 -0.2213,0.617 -0.2213,0.9578l0,0.5473c0,0.4668 0.0805,0.8625 0.2414,1.1872c0.1637,0.3219 0.3904,0.5674 0.6802,0.7364c0.2897,0.1664 0.6264,0.2495 1.0101,0.2495c0.2497,0 0.4747,-0.0349 0.6757,-0.1046c0.204,-0.0725 0.38,-0.1798 0.528,-0.322c0.147,-0.1448 0.261,-0.3246 0.342,-0.5392l0.917,0.2575c-0.096,0.3113 -0.259,0.5849 -0.487,0.821c-0.228,0.2334 -0.51,0.4158 -0.845,0.5473c-0.335,0.1288 -0.712,0.1932 -1.1307,0.1932zm6.3387,0c-0.516,0 -0.97,-0.1301 -1.365,-0.3904c-0.394,-0.2629 -0.703,-0.6331 -0.925,-1.1107c-0.223,-0.4802 -0.334,-1.0477 -0.334,-1.7023c0,-0.6492 0.111,-1.2127 0.334,-1.6902c0.222,-0.4776 0.532,-0.8465 0.929,-1.1067c0.397,-0.2602 0.856,-0.3904 1.377,-0.3904c0.402,0 0.72,0.0671 0.953,0.2013c0.237,0.1314 0.416,0.2817 0.54,0.4507c0.126,0.1663 0.224,0.3031 0.293,0.4105l0.081,0l0,-3.0424l0.95,0l0,8.2418l-0.918,0l0,-0.9497l-0.113,0c-0.069,0.1126 -0.169,0.2548 -0.297,0.4265c-0.129,0.1691 -0.313,0.3206 -0.552,0.4548c-0.238,0.1314 -0.556,0.1972 -0.953,0.1972zm0.128,-0.8532c0.381,0 0.703,-0.0992 0.966,-0.2978c0.263,-0.2012 0.463,-0.4789 0.6,-0.833c0.137,-0.3568 0.205,-0.7687 0.205,-1.2355c0,-0.4614 -0.067,-0.8652 -0.201,-1.2113c-0.134,-0.3488 -0.333,-0.6198 -0.596,-0.8129c-0.263,-0.1959 -0.587,-0.2938 -0.974,-0.2938c-0.402,0 -0.737,0.1033 -1.006,0.3099c-0.265,0.2039 -0.465,0.4816 -0.599,0.833c-0.132,0.3488 -0.198,0.7405 -0.198,1.1751c0,0.44 0.068,0.8398 0.202,1.1993c0.137,0.3568 0.338,0.6412 0.603,0.8531c0.269,0.2093 0.601,0.3139 0.998,0.3139zm7.892,0.7244l0,-8.2418l0.95,0l0,3.0424l0.08,0c0.07,-0.1074 0.167,-0.2442 0.29,-0.4105c0.126,-0.169 0.306,-0.3193 0.539,-0.4507c0.236,-0.1342 0.556,-0.2013 0.958,-0.2013c0.521,0 0.979,0.1302 1.376,0.3904c0.397,0.2602 0.707,0.6291 0.93,1.1067c0.223,0.4775 0.334,1.041 0.334,1.6902c0,0.6546 -0.111,1.2221 -0.334,1.7023c-0.223,0.4776 -0.531,0.8478 -0.926,1.1107c-0.394,0.2603 -0.849,0.3904 -1.364,0.3904c-0.397,0 -0.715,-0.0658 -0.954,-0.1972c-0.238,-0.1342 -0.422,-0.2857 -0.551,-0.4548c-0.129,-0.1717 -0.228,-0.3139 -0.298,-0.4265l-0.112,0l0,0.9497l-0.918,0zm0.934,-3.0907c0,0.4668 0.068,0.8787 0.205,1.2355c0.137,0.3541 0.337,0.6318 0.6,0.833c0.263,0.1986 0.584,0.2978 0.965,0.2978c0.397,0 0.729,-0.1046 0.994,-0.3139c0.269,-0.2119 0.47,-0.4963 0.604,-0.8531c0.137,-0.3595 0.205,-0.7593 0.205,-1.1993c0,-0.4346 -0.067,-0.8263 -0.201,-1.1751c-0.131,-0.3514 -0.331,-0.6291 -0.6,-0.833c-0.265,-0.2066 -0.599,-0.3099 -1.002,-0.3099c-0.386,0 -0.711,0.0979 -0.973,0.2938c-0.263,0.1931 -0.462,0.4641 -0.596,0.8129c-0.134,0.3461 -0.201,0.7499 -0.201,1.2113zm6.366,5.4087c-0.161,0 -0.304,-0.0134 -0.43,-0.0402c-0.126,-0.0242 -0.214,-0.0483 -0.262,-0.0725l0.241,-0.837c0.231,0.059 0.435,0.0805 0.612,0.0644c0.177,-0.0161 0.334,-0.0953 0.471,-0.2375c0.14,-0.1395 0.267,-0.3662 0.382,-0.6801l0.177,-0.4829l-2.285,-6.2136l1.03,0l1.706,4.9258l0.065,0l1.706,-4.9258l1.03,0l-2.624,7.0829c-0.118,0.3192 -0.264,0.5835 -0.438,0.7927c-0.175,0.212 -0.377,0.3689 -0.608,0.4709c-0.228,0.1019 -0.486,0.1529 -0.773,0.1529z"/>
  <path id="svg_17" fill="#0069FF" d="m39.0979,48l0,-6.1964c6.615,0 11.7006,-6.5004 9.1769,-13.4191c-0.9177,-2.5469 -2.9825,-4.5997 -5.5444,-5.5121c-6.9591,-2.5089 -13.4977,2.585 -13.4977,9.1235l0,0l-6.2327,0c0,-10.454 10.1711,-18.6271 21.1835,-15.2058c4.8179,1.4826 8.6416,5.322 10.1711,10.1119c3.4413,10.9861 -4.7415,21.098 -15.2567,21.098l0,0z" clip-rule="evenodd" fill-rule="evenodd"/>
  <path id="svg_18" fill="#0069FF" d="m39.0976,41.8417l-6.1945,0l0,-6.1584l0,0l6.1945,0l0,0l0,6.1584z" clip-rule="evenodd" fill-rule="evenodd"/>
  <path id="svg_19" fill="#0069FF" d="m32.9024,46.5935l-4.7797,0l0,0l0,-4.7519l4.7797,0l0,4.7519l0,0z" clip-rule="evenodd" fill-rule="evenodd"/>
  <path id="svg_20" fill="#0069FF" d="m28.1251,41.8417l-4.0149,0l0,0l0,-3.9535l0,0l3.9766,0l0,0l0,3.9535l0.0383,0z" clip-rule="evenodd" fill-rule="evenodd"/>
 </g>
</svg>
